<svg width="18" height="18" viewBox="0 0 18 18" fill="none" xmlns="http://www.w3.org/2000/svg">
<path d="M8.9459 9.19859L0.517906 6.58458H0.431641C0.724618 5.73494 4.9256 5.65356 6.14471 5.64867C6.42629 4.87879 8.10603 0.392978 9.07449 0.414137L8.9459 9.19859Z" fill="white"/>
<path d="M17.5797 7.01518L8.95312 9.19949L9.08008 0.410156C10.0192 0.431316 11.533 4.80482 11.8471 5.73747C12.9116 5.79932 17.3307 6.12485 17.5797 7.01518Z" fill="#FFC100"/>
<path d="M8.94658 9.2006L3.51021 16.525C2.79892 16.0498 3.67297 12.3224 4.01804 10.9536C2.87868 9.92165 0.16375 7.37275 0.437196 6.58008H0.523464L8.94658 9.2006Z" fill="#FFD71A"/>
<path d="M13.9583 16.7558C13.2194 17.2034 9.94779 14.923 8.79378 14.088C7.60397 14.8709 4.23635 16.9999 3.51367 16.5198L8.95329 9.19531L13.9583 16.7558Z" fill="#FFC100"/>
<path d="M13.6997 11.1948C13.9927 12.6043 14.6763 16.3121 13.9552 16.7516L8.94531 9.19929L17.5719 7.01172C17.8014 7.82229 14.8797 10.2524 13.6997 11.1948Z" fill="#EB7D00"/>
<path d="M13.7253 17.2241C13.1459 17.2241 11.873 16.7976 8.77887 14.5824C4.26864 17.5122 3.55573 17.0434 3.28391 16.8611C3.01209 16.6788 2.28778 16.1954 3.56386 11.0878C-0.329486 7.54766 -0.0560409 6.75011 0.048129 6.44737C0.152299 6.14462 0.445278 5.28685 5.86048 5.23639C6.07045 4.67811 6.4969 3.58107 6.98357 2.55402C8.05782 0.286694 8.65191 -0.00953853 9.0751 0.000227399C9.38598 0.00836567 10.3219 0.0278971 12.1335 5.34382C17.6333 5.71004 17.884 6.60525 17.967 6.90311C18.05 7.20097 18.2811 8.02945 14.1485 11.358C15.1869 16.4819 14.4464 16.9311 14.1664 17.1004C14.0358 17.1865 13.8816 17.2297 13.7253 17.2241ZM8.79026 13.6807C8.8758 13.6805 8.95912 13.7079 9.0279 13.7588C11.9056 15.8389 13.4095 16.4753 13.7481 16.4037C13.9499 16.1433 13.9955 14.5889 13.307 11.2782C13.2922 11.2046 13.2979 11.1284 13.3234 11.0578C13.349 10.9872 13.3934 10.9249 13.4519 10.8778C16.17 8.70818 17.1662 7.45977 17.1857 7.12447C16.9839 6.85265 15.3758 6.35785 11.8144 6.14788C11.7338 6.1427 11.6565 6.11361 11.5924 6.06433C11.5284 6.01505 11.4804 5.94781 11.4547 5.87118C10.1656 2.02666 9.29158 0.929618 9.06208 0.825448C8.65354 0.971937 7.59719 2.84537 6.52945 5.78817C6.4994 5.86542 6.44657 5.9317 6.37796 5.97822C6.30935 6.02473 6.22821 6.04928 6.14532 6.04859C3.01046 6.05998 1.07681 6.39691 0.819638 6.71267C0.819638 7.0382 1.73112 8.34033 4.28817 10.6467C4.3433 10.6965 4.38381 10.7604 4.40532 10.8316C4.42683 10.9027 4.42853 10.9784 4.41024 11.0504C3.57037 14.348 3.54596 15.9138 3.73802 16.1824C4.06356 16.2719 5.59843 15.6941 8.56402 13.7409C8.63213 13.6996 8.71064 13.6787 8.79026 13.6807Z" fill="#954800"/>
</svg>
