<svg width="18" height="18" viewBox="0 0 18 18" fill="none" xmlns="http://www.w3.org/2000/svg">
<path d="M8.94513 9.95027L0.517898 7.33487H0.431641C0.724592 6.48368 4.92519 6.40393 6.14419 6.39742C6.42575 5.62924 8.10533 1.14383 9.0737 1.16499L8.94513 9.95027Z" fill="white"/>
<path d="M17.576 7.76657L8.9502 9.94906L9.07714 1.16052C10.0162 1.18168 11.5298 5.55479 11.8439 6.48735C12.9099 6.55082 17.3286 6.87632 17.576 7.76657Z" fill="#D4D4D4"/>
<path d="M8.94483 9.95L3.50895 17.2738C2.79773 16.7969 3.6717 13.0716 4.01673 11.7012C2.87748 10.6694 0.162797 8.12068 0.436218 7.32971H0.522481L8.94483 9.95Z" fill="#D4D4D4"/>
<path d="M13.9515 17.4973C13.2126 17.9531 9.94134 15.6729 8.78744 14.838C7.59611 15.6192 4.23043 17.7496 3.50781 17.2679L8.94694 9.94409L13.9515 17.4973Z" fill="#BFBFBF"/>
<path d="M13.6983 11.9454C13.9912 13.3548 14.6748 17.0623 13.9538 17.5017L8.94434 9.9501L17.5701 7.76111C17.7996 8.57323 14.8782 11.0031 13.6983 11.9454Z" fill="#919191"/>
<path d="M13.7241 17.9723C13.1463 17.9723 11.8736 17.5459 8.77808 15.3308C4.26663 18.2603 3.55541 17.7916 3.28362 17.6093C3.01183 17.4271 2.28759 16.9421 3.56192 11.8349C-0.329445 8.29675 -0.0560228 7.49764 0.0481376 7.19493C0.152298 6.89221 0.446876 6.03451 5.85996 5.98406C6.06991 5.42745 6.49632 4.32889 6.98294 3.30193C8.04082 1.07062 8.6251 0.75 9.05639 0.75H9.07591C9.38677 0.75 10.3226 0.777668 12.134 6.0931C17.6333 6.45767 17.884 7.35442 17.967 7.65063C18.05 7.94683 18.2811 8.77686 14.1488 12.1051C15.1872 17.2285 14.4483 17.6777 14.1668 17.8486C14.0353 17.9341 13.8808 17.9773 13.7241 17.9723ZM8.78947 14.4308C8.87467 14.4312 8.95766 14.4579 9.02709 14.5073C11.9045 16.5889 13.4083 17.2252 13.7469 17.152C13.9487 16.8916 13.9942 15.3373 13.3058 12.0286C13.2909 11.9548 13.2965 11.8782 13.322 11.8074C13.3475 11.7365 13.392 11.674 13.4507 11.6266C16.1686 9.45879 17.1646 8.20886 17.1842 7.8736C16.9823 7.60343 15.3744 7.10704 11.8134 6.89709C11.7324 6.89222 11.6548 6.86329 11.5904 6.81399C11.5261 6.76469 11.4779 6.69728 11.4521 6.62042C10.4186 3.52815 9.45512 1.7379 9.06127 1.57515C8.65276 1.71999 7.60465 3.59488 6.52887 6.53741C6.50027 6.61549 6.44843 6.68292 6.38034 6.73064C6.31225 6.77836 6.23118 6.80408 6.14803 6.80432C3.01508 6.81734 1.0816 7.15424 0.824456 7.46997C0.824456 7.79548 1.73586 9.09748 4.29267 11.4037C4.34553 11.4535 4.384 11.5167 4.40404 11.5866C4.42408 11.6565 4.42497 11.7304 4.4066 11.8008C3.56681 15.0997 3.54239 16.6638 3.73444 16.9339C4.05994 17.0202 5.59468 16.4457 8.55999 14.4927C8.6285 14.4494 8.70849 14.4278 8.78947 14.4308Z" fill="#666666"/>
<g clip-path="url(#clip0_12142_162287)">
<path d="M8.9459 9.94944L0.517906 7.33543H0.431641C0.724618 6.48579 4.9256 6.40441 6.14471 6.39953C6.42629 5.62965 8.10603 1.14383 9.07449 1.16499L8.9459 9.94944Z" fill="white"/>
<path d="M17.5787 7.76554L8.95215 9.94986L9.07911 1.16052C10.0183 1.18168 11.532 5.55519 11.8461 6.48784C12.9106 6.54969 17.3297 6.87522 17.5787 7.76554Z" fill="#FFC100"/>
<path d="M8.9456 9.94987L3.50923 17.2743C2.79795 16.799 3.672 13.0717 4.01706 11.7029C2.8777 10.6709 0.162774 8.12201 0.43622 7.32935H0.522488L8.9456 9.94987Z" fill="#FFD71A"/>
<path d="M13.9583 17.5049C13.2194 17.9525 9.94779 15.6722 8.79378 14.8372C7.60397 15.6201 4.23635 17.7491 3.51367 17.2689L8.95329 9.94446L13.9583 17.5049Z" fill="#FFC100"/>
<path d="M13.7016 11.9456C13.9946 13.3552 14.6782 17.063 13.9572 17.5025L8.94727 9.95014L17.5738 7.76257C17.8033 8.57315 14.8817 11.0032 13.7016 11.9456Z" fill="#EB7D00"/>
<path d="M13.7253 17.9741C13.1459 17.9741 11.873 17.5476 8.77887 15.3324C4.26864 18.2622 3.55573 17.7934 3.28391 17.6111C3.01209 17.4288 2.28778 16.9454 3.56386 11.8378C-0.329486 8.29766 -0.0560409 7.50011 0.048129 7.19737C0.152299 6.89462 0.445278 6.03685 5.86048 5.98639C6.07045 5.42811 6.4969 4.33107 6.98357 3.30402C8.05782 1.03669 8.65191 0.740461 9.0751 0.750227C9.38598 0.758366 10.3219 0.777897 12.1335 6.09382C17.6333 6.46004 17.884 7.35525 17.967 7.65311C18.05 7.95097 18.2811 8.77945 14.1485 12.108C15.1869 17.2319 14.4464 17.6811 14.1664 17.8504C14.0358 17.9365 13.8816 17.9797 13.7253 17.9741ZM8.79026 14.4307C8.8758 14.4305 8.95912 14.4579 9.0279 14.5088C11.9056 16.5889 13.4095 17.2253 13.7481 17.1537C13.9499 16.8933 13.9955 15.3389 13.307 12.0282C13.2922 11.9546 13.2979 11.8784 13.3234 11.8078C13.349 11.7372 13.3934 11.6749 13.4519 11.6278C16.17 9.45818 17.1662 8.20977 17.1857 7.87447C16.9839 7.60265 15.3758 7.10785 11.8144 6.89788C11.7338 6.8927 11.6565 6.86361 11.5924 6.81433C11.5284 6.76505 11.4804 6.69781 11.4547 6.62118C10.1656 2.77666 9.29158 1.67962 9.06208 1.57545C8.65354 1.72194 7.59719 3.59537 6.52945 6.53817C6.4994 6.61542 6.44657 6.6817 6.37796 6.72822C6.30935 6.77473 6.22821 6.79928 6.14532 6.79859C3.01046 6.80998 1.07681 7.14691 0.819638 7.46267C0.819638 7.7882 1.73112 9.09033 4.28817 11.3967C4.3433 11.4465 4.38381 11.5104 4.40532 11.5816C4.42683 11.6527 4.42853 11.7284 4.41024 11.8004C3.57037 15.098 3.54596 16.6638 3.73802 16.9324C4.06356 17.0219 5.59843 16.4441 8.56402 14.4909C8.63213 14.4496 8.71064 14.4287 8.79026 14.4307Z" fill="#954800"/>
</g>
<defs>
<clipPath id="clip0_12142_162287">
<rect width="9" height="18" fill="white"/>
</clipPath>
</defs>
</svg>
