<svg width="18" height="18" viewBox="0 0 18 18" fill="none" xmlns="http://www.w3.org/2000/svg">
<path d="M5 5.5L6 5H7H8L9 5.5L8.5 8H5.5L5 5.5Z" fill="url(#paint0_linear_11034_54053)"/>
<path d="M8.94513 9.19942L0.517898 6.58401H0.431641C0.724592 5.73283 4.92519 5.65308 6.14419 5.64657C6.42575 4.87839 8.10533 0.39298 9.0737 0.414137L8.94513 9.19942Z" fill="white"/>
<path d="M17.575 7.0162L8.94922 9.19869L9.07616 0.410156C10.0152 0.431314 11.5288 4.80442 11.8429 5.73698C12.9089 5.80046 17.3276 6.12596 17.575 7.0162Z" fill="#D4D4D4"/>
<path d="M8.9458 9.20036L3.50993 16.5241C2.79871 16.0473 3.67268 12.3219 4.01771 10.9516C2.87845 9.91972 0.163774 7.37105 0.437195 6.58008H0.523457L8.9458 9.20036Z" fill="#D4D4D4"/>
<path d="M13.9515 16.7466C13.2126 17.2023 9.94134 14.9222 8.78744 14.0873C7.59611 14.8685 4.23043 16.9989 3.50781 16.5171L8.94694 9.19336L13.9515 16.7466Z" fill="#BFBFBF"/>
<path d="M13.6993 11.196C13.9922 12.6055 14.6758 16.3129 13.9548 16.7523L8.94531 9.20071L17.5711 7.01172C17.8006 7.82384 14.8792 10.2537 13.6993 11.196Z" fill="#919191"/>
<path d="M13.7241 17.2223C13.1463 17.2223 11.8736 16.7959 8.77808 14.5808C4.26663 17.5103 3.55541 17.0416 3.28362 16.8593C3.01183 16.6771 2.28759 16.1921 3.56192 11.0849C-0.329445 7.54675 -0.0560228 6.74764 0.0481376 6.44493C0.152298 6.14221 0.446876 5.28451 5.85996 5.23406C6.06991 4.67745 6.49632 3.57889 6.98294 2.55193C8.04082 0.320619 8.6251 0 9.05639 0H9.07591C9.38677 0 10.3226 0.0276679 12.134 5.3431C17.6333 5.70767 17.884 6.60442 17.967 6.90063C18.05 7.19683 18.2811 8.02686 14.1488 11.3551C15.1872 16.4785 14.4483 16.9277 14.1668 17.0986C14.0353 17.1841 13.8808 17.2273 13.7241 17.2223ZM8.78947 13.6808C8.87467 13.6812 8.95766 13.7079 9.02709 13.7573C11.9045 15.8389 13.4083 16.4752 13.7469 16.402C13.9487 16.1416 13.9942 14.5873 13.3058 11.2786C13.2909 11.2048 13.2965 11.1282 13.322 11.0574C13.3475 10.9865 13.392 10.924 13.4507 10.8766C16.1686 8.70879 17.1646 7.45886 17.1842 7.1236C16.9823 6.85343 15.3744 6.35704 11.8134 6.14709C11.7324 6.14222 11.6548 6.11329 11.5904 6.06399C11.5261 6.01469 11.4779 5.94728 11.4521 5.87042C10.4186 2.77815 9.45512 0.987896 9.06127 0.825146C8.65276 0.969994 7.60465 2.84488 6.52887 5.78741C6.50027 5.86549 6.44843 5.93292 6.38034 5.98064C6.31225 6.02836 6.23118 6.05408 6.14803 6.05432C3.01508 6.06734 1.0816 6.40424 0.824456 6.71997C0.824456 7.04548 1.73586 8.34748 4.29267 10.6537C4.34553 10.7035 4.384 10.7667 4.40404 10.8366C4.42408 10.9065 4.42497 10.9804 4.4066 11.0508C3.56681 14.3497 3.54239 15.9138 3.73444 16.1839C4.05994 16.2702 5.59468 15.6957 8.55999 13.7427C8.6285 13.6994 8.70849 13.6778 8.78947 13.6808Z" fill="#666666"/>
<defs>
<linearGradient id="paint0_linear_11034_54053" x1="7" y1="5" x2="7" y2="8" gradientUnits="userSpaceOnUse">
<stop stop-color="#E9E9E9"/>
<stop offset="1" stop-color="#F8F8F8"/>
</linearGradient>
</defs>
</svg>
